<?xml version="1.0" encoding="UTF-8" standalone="no" ?>
<!DOCTYPE svg PUBLIC "-//W3C//DTD SVG 1.1//EN" "http://www.w3.org/Graphics/SVG/1.1/DTD/svg11.dtd">
<svg xmlns="http://www.w3.org/2000/svg" xmlns:xlink="http://www.w3.org/1999/xlink" version="1.1" width="500" height="500" viewBox="0 0 500 500" xml:space="preserve">
<desc>Created with Fabric.js 3.6.3</desc>
<defs>
</defs>
<g transform="matrix(4.828653957820643 0 0 4.828653957820643 244.04632947767163 180.5882747402642)"  >
<g style=""   >
		<g transform="matrix(1 0 0 1 0.7565000000000026 -7)"  >
<path style="stroke: none; stroke-width: 1; stroke-dasharray: none; stroke-linecap: butt; stroke-dashoffset: 0; stroke-linejoin: miter; stroke-miterlimit: 4; fill: rgb(40,153,118); fill-rule: nonzero; opacity: 1;"  transform=" translate(-50.2565, -42.5)" d="M 62.444 70.625 c 0 -6.323 2.677 -11.23 5.51 -16.426 c 2.823 -5.173 5.74 -10.521 5.74 -17.324 c 0 -12.924 -10.514 -23.438 -23.438 -23.438 S 26.819 23.951 26.819 36.875 c 0 6.802 2.917 12.151 5.74 17.324 c 2.833 5.196 5.51 10.104 5.51 16.426 c 0 0.518 0.419 0.938 0.938 0.938 h 22.5 C 62.024 71.562 62.444 71.143 62.444 70.625 z M 34.204 53.301 c -2.833 -5.196 -5.51 -10.104 -5.51 -16.426 c 0 -11.889 9.673 -21.562 21.562 -21.562 s 21.562 9.673 21.562 21.562 c 0 6.323 -2.677 11.23 -5.51 16.426 c -2.14 3.922 -4.312 7.956 -5.25 12.636 H 39.453 C 38.516 61.257 36.344 57.224 34.204 53.301 z M 39.926 69.688 c -0.026 -0.641 -0.094 -1.26 -0.169 -1.875 h 20.999 c -0.075 0.615 -0.143 1.234 -0.169 1.875 H 39.926 z" stroke-linecap="round" />
</g>
		<g transform="matrix(1 0 0 1 0.7560000000000002 24.876000000000005)"  >
<path style="stroke: none; stroke-width: 1; stroke-dasharray: none; stroke-linecap: butt; stroke-dashoffset: 0; stroke-linejoin: miter; stroke-miterlimit: 4; fill: rgb(40,153,118); fill-rule: nonzero; opacity: 1;"  transform=" translate(-50.256, -74.376)" d="M 59.631 73.438 h -18.75 c -0.518 0 -0.938 0.419 -0.938 0.938 s 0.419 0.938 0.938 0.938 h 18.75 c 0.518 0 0.938 -0.419 0.938 -0.938 S 60.149 73.438 59.631 73.438 z" stroke-linecap="round" />
</g>
		<g transform="matrix(1 0 0 1 0.7560000000000002 28.625)"  >
<path style="stroke: none; stroke-width: 1; stroke-dasharray: none; stroke-linecap: butt; stroke-dashoffset: 0; stroke-linejoin: miter; stroke-miterlimit: 4; fill: rgb(40,153,118); fill-rule: nonzero; opacity: 1;"  transform=" translate(-50.256, -78.125)" d="M 60.569 78.125 c 0 -0.518 -0.419 -0.938 -0.938 -0.938 h -18.75 c -0.518 0 -0.938 0.419 -0.938 0.938 s 0.419 0.938 0.938 0.938 h 18.75 C 60.149 79.062 60.569 78.643 60.569 78.125 z" stroke-linecap="round" />
</g>
		<g transform="matrix(1 0 0 1 0.8140000000000001 34.221000000000004)"  >
<path style="stroke: none; stroke-width: 1; stroke-dasharray: none; stroke-linecap: butt; stroke-dashoffset: 0; stroke-linejoin: miter; stroke-miterlimit: 4; fill: rgb(40,153,118); fill-rule: nonzero; opacity: 1;"  transform=" translate(-50.314, -83.721)" d="M 42.756 80.879 c -0.518 0 -0.938 0.419 -0.938 0.938 c 0 4.746 6.172 4.746 8.496 4.746 s 8.496 0 8.496 -4.746 c 0 -0.518 -0.419 -0.938 -0.938 -0.938 H 42.756 z M 50.315 84.688 c -4.534 0 -6.021 -0.877 -6.457 -1.934 h 12.913 C 56.335 83.811 54.849 84.688 50.315 84.688 z" stroke-linecap="round" />
</g>
		<g transform="matrix(1 0 0 1 -8.619 -13.561999999999996)"  >
<ellipse style="stroke: none; stroke-width: 1; stroke-dasharray: none; stroke-linecap: butt; stroke-dashoffset: 0; stroke-linejoin: miter; stroke-miterlimit: 4; fill: rgb(40,153,118); fill-rule: nonzero; opacity: 1;"  cx="0" cy="0" rx="1.875" ry="2.812" />
</g>
		<g transform="matrix(1 0 0 1 10.131 -13.561999999999996)"  >
<ellipse style="stroke: none; stroke-width: 1; stroke-dasharray: none; stroke-linecap: butt; stroke-dashoffset: 0; stroke-linejoin: miter; stroke-miterlimit: 4; fill: rgb(40,153,118); fill-rule: nonzero; opacity: 1;"  cx="0" cy="0" rx="1.875" ry="2.812" />
</g>
		<g transform="matrix(1 0 0 1 0.7539999999999907 -4.188000000000002)"  >
<path style="stroke: none; stroke-width: 1; stroke-dasharray: none; stroke-linecap: butt; stroke-dashoffset: 0; stroke-linejoin: miter; stroke-miterlimit: 4; fill: rgb(40,153,118); fill-rule: nonzero; opacity: 1;"  transform=" translate(-50.25399999999999, -45.312)" d="M 50.256 49.062 c 3.618 0 6.562 -2.944 6.562 -6.562 c 0 -0.518 -0.419 -0.938 -0.938 -0.938 s -0.938 0.419 -0.938 0.938 c 0 2.585 -2.102 4.688 -4.688 4.688 s -4.688 -2.102 -4.688 -4.688 c 0 -0.518 -0.419 -0.938 -0.938 -0.938 s -0.938 0.419 -0.938 0.938 C 43.694 46.118 46.638 49.062 50.256 49.062 z" stroke-linecap="round" />
</g>
</g>
</g>
<g transform="matrix(0.5 0 0 0.5 250 416.1919586203916)" style=""  ><path fill="#289976" opacity="1" d="M-369.34 69.27L-336.92 69.27L-373.97-85.08L-407.48-85.08L-444.53 69.27L-412.11 69.27L-407.04 43.69L-374.41 43.69ZM-400.87 13.92L-397.34-3.72C-395.14-14.74-392.71-33.49-391.17-46.05L-390.29-46.05C-388.74-33.49-386.10-14.74-384.11-3.72L-380.58 13.92Z"/><path fill="#289976" opacity="1" d="M-277.83-85.08L-322.59-85.08L-322.59 69.27L-291.28 69.27L-291.28 19.66L-277.83 19.66C-245.86 19.66-226.89 0.25-226.89-32.60C-226.89-65.68-245.86-85.08-277.83-85.08ZM-278.27-10.11L-291.28-10.11L-291.28-55.31L-278.27-55.31C-265.70-55.31-259.09-47.60-259.09-32.60C-259.09-17.83-265.70-10.11-278.27-10.11Z"/><path fill="#289976" opacity="1" d="M-142.66 69.27L-108.49 69.27L-137.59 10.84C-123.92 2.68-116.20-12.76-116.20-33.71C-116.20-66.12-134.28-85.08-164.93-85.08L-209.70-85.08L-209.70 69.27L-178.38 69.27L-178.38 17.45L-167.36 17.45ZM-178.38-55.31L-165.38-55.31C-154.35-55.31-148.40-47.82-148.40-33.71C-148.40-19.81-154.35-12.32-165.38-12.32L-178.38-12.32Z"/><path fill="#289976" opacity="1" d="M-62.40 39.50L-62.40 5.32L-18.52 5.32L-18.52-23.34L-62.40-23.34L-62.40-55.31L-14.11-55.31L-14.11-85.08L-93.71-85.08L-93.71 69.27L-11.91 69.27L-11.91 39.50Z"/><path fill="#289976" opacity="1" d="M76.95-85.08L76.95-49.36C76.95-35.03 78.72-8.57 81.36 10.84L80.70 11.50C76.95 1.79 73.43-8.35 69.68-18.05L40.35-85.08L9.48-85.08L9.48 69.27L40.35 69.27L40.35 37.96C40.35 20.76 38.81-8.13 36.38-27.53L37.04-28.19L50.94 9.51L76.95 69.27L107.82 69.27L107.82-85.08Z"/><path fill="#289976" opacity="1" d="M135.17 69.27L177.94 69.27C208.81 69.27 226.89 49.86 226.89 17.01L226.89-33.93C226.89-66.12 208.59-85.08 177.50-85.08L135.17-85.08ZM166.48 39.50L166.48-55.31L177.94-55.31C189.19-55.31 195.14-48.04 195.14-33.93L195.14 17.01C195.14 31.78 189.19 39.50 177.94 39.50Z"/><path fill="#289976" opacity="1" d="M281.14 39.50L281.14 5.32L325.02 5.32L325.02-23.34L281.14-23.34L281.14-55.31L329.43-55.31L329.43-85.08L249.83-85.08L249.83 69.27L331.63 69.27L331.63 39.50Z"/><path fill="#289976" opacity="1" d="M436.37-12.98L406.16-12.98L406.16-44.29L378.38-44.29L378.38-12.98L348.17-12.98L348.17 14.58L378.38 14.58L378.38 45.89L406.16 45.89L406.16 14.58L436.37 14.58Z"/></g></svg>