<?xml version="1.0" encoding="UTF-8" standalone="no" ?>
<!DOCTYPE svg PUBLIC "-//W3C//DTD SVG 1.1//EN" "http://www.w3.org/Graphics/SVG/1.1/DTD/svg11.dtd">
<svg xmlns="http://www.w3.org/2000/svg" xmlns:xlink="http://www.w3.org/1999/xlink" version="1.1" width="500" height="500" viewBox="0 0 500 500" xml:space="preserve">
<desc>Created with Fabric.js 3.6.3</desc>
<defs>
</defs>
<g transform="matrix(4.828653957820643 0 0 4.828653957820643 244.04632947767163 180.5882747402642)"  >
<g style=""   >
		<g transform="matrix(1 0 0 1 0.7565000000000026 -7)"  >
<path style="stroke: none; stroke-width: 1; stroke-dasharray: none; stroke-linecap: butt; stroke-dashoffset: 0; stroke-linejoin: miter; stroke-miterlimit: 4; fill: rgb(40,153,118); fill-rule: nonzero; opacity: 1;"  transform=" translate(-50.2565, -42.5)" d="M 62.444 70.625 c 0 -6.323 2.677 -11.23 5.51 -16.426 c 2.823 -5.173 5.74 -10.521 5.74 -17.324 c 0 -12.924 -10.514 -23.438 -23.438 -23.438 S 26.819 23.951 26.819 36.875 c 0 6.802 2.917 12.151 5.74 17.324 c 2.833 5.196 5.51 10.104 5.51 16.426 c 0 0.518 0.419 0.938 0.938 0.938 h 22.5 C 62.024 71.562 62.444 71.143 62.444 70.625 z M 34.204 53.301 c -2.833 -5.196 -5.51 -10.104 -5.51 -16.426 c 0 -11.889 9.673 -21.562 21.562 -21.562 s 21.562 9.673 21.562 21.562 c 0 6.323 -2.677 11.23 -5.51 16.426 c -2.14 3.922 -4.312 7.956 -5.25 12.636 H 39.453 C 38.516 61.257 36.344 57.224 34.204 53.301 z M 39.926 69.688 c -0.026 -0.641 -0.094 -1.26 -0.169 -1.875 h 20.999 c -0.075 0.615 -0.143 1.234 -0.169 1.875 H 39.926 z" stroke-linecap="round" />
</g>
		<g transform="matrix(1 0 0 1 0.7560000000000002 24.876000000000005)"  >
<path style="stroke: none; stroke-width: 1; stroke-dasharray: none; stroke-linecap: butt; stroke-dashoffset: 0; stroke-linejoin: miter; stroke-miterlimit: 4; fill: rgb(40,153,118); fill-rule: nonzero; opacity: 1;"  transform=" translate(-50.256, -74.376)" d="M 59.631 73.438 h -18.75 c -0.518 0 -0.938 0.419 -0.938 0.938 s 0.419 0.938 0.938 0.938 h 18.75 c 0.518 0 0.938 -0.419 0.938 -0.938 S 60.149 73.438 59.631 73.438 z" stroke-linecap="round" />
</g>
		<g transform="matrix(1 0 0 1 0.7560000000000002 28.625)"  >
<path style="stroke: none; stroke-width: 1; stroke-dasharray: none; stroke-linecap: butt; stroke-dashoffset: 0; stroke-linejoin: miter; stroke-miterlimit: 4; fill: rgb(40,153,118); fill-rule: nonzero; opacity: 1;"  transform=" translate(-50.256, -78.125)" d="M 60.569 78.125 c 0 -0.518 -0.419 -0.938 -0.938 -0.938 h -18.75 c -0.518 0 -0.938 0.419 -0.938 0.938 s 0.419 0.938 0.938 0.938 h 18.75 C 60.149 79.062 60.569 78.643 60.569 78.125 z" stroke-linecap="round" />
</g>
		<g transform="matrix(1 0 0 1 0.8140000000000001 34.221000000000004)"  >
<path style="stroke: none; stroke-width: 1; stroke-dasharray: none; stroke-linecap: butt; stroke-dashoffset: 0; stroke-linejoin: miter; stroke-miterlimit: 4; fill: rgb(40,153,118); fill-rule: nonzero; opacity: 1;"  transform=" translate(-50.314, -83.721)" d="M 42.756 80.879 c -0.518 0 -0.938 0.419 -0.938 0.938 c 0 4.746 6.172 4.746 8.496 4.746 s 8.496 0 8.496 -4.746 c 0 -0.518 -0.419 -0.938 -0.938 -0.938 H 42.756 z M 50.315 84.688 c -4.534 0 -6.021 -0.877 -6.457 -1.934 h 12.913 C 56.335 83.811 54.849 84.688 50.315 84.688 z" stroke-linecap="round" />
</g>
		<g transform="matrix(1 0 0 1 -8.619 -13.561999999999996)"  >
<ellipse style="stroke: none; stroke-width: 1; stroke-dasharray: none; stroke-linecap: butt; stroke-dashoffset: 0; stroke-linejoin: miter; stroke-miterlimit: 4; fill: rgb(40,153,118); fill-rule: nonzero; opacity: 1;"  cx="0" cy="0" rx="1.875" ry="2.812" />
</g>
		<g transform="matrix(1 0 0 1 10.131 -13.561999999999996)"  >
<ellipse style="stroke: none; stroke-width: 1; stroke-dasharray: none; stroke-linecap: butt; stroke-dashoffset: 0; stroke-linejoin: miter; stroke-miterlimit: 4; fill: rgb(40,153,118); fill-rule: nonzero; opacity: 1;"  cx="0" cy="0" rx="1.875" ry="2.812" />
</g>
		<g transform="matrix(1 0 0 1 0.7539999999999907 -4.188000000000002)"  >
<path style="stroke: none; stroke-width: 1; stroke-dasharray: none; stroke-linecap: butt; stroke-dashoffset: 0; stroke-linejoin: miter; stroke-miterlimit: 4; fill: rgb(40,153,118); fill-rule: nonzero; opacity: 1;"  transform=" translate(-50.25399999999999, -45.312)" d="M 50.256 49.062 c 3.618 0 6.562 -2.944 6.562 -6.562 c 0 -0.518 -0.419 -0.938 -0.938 -0.938 s -0.938 0.419 -0.938 0.938 c 0 2.585 -2.102 4.688 -4.688 4.688 s -4.688 -2.102 -4.688 -4.688 c 0 -0.518 -0.419 -0.938 -0.938 -0.938 s -0.938 0.419 -0.938 0.938 C 43.694 46.118 46.638 49.062 50.256 49.062 z" stroke-linecap="round" />
</g>
</g>
</g>
<g transform="matrix(0.5 0 0 0.5 251.50943650476285 401.19195862039174)" style=""  ><path fill="#289976" opacity="1" d="M-388.72 82.15L-350.28 82.15L-394.21-100.90L-433.96-100.90L-477.89 82.15L-439.45 82.15L-433.44 51.81L-394.73 51.81ZM-426.11 16.51L-421.93-4.41C-419.32-17.48-416.44-39.71-414.61-54.62L-413.56-54.62C-411.73-39.71-408.59-17.48-406.24-4.41L-402.06 16.51Z"/><path fill="#289976" opacity="1" d="M-280.72-59.59C-291.96-59.59-303.47-52.52-310.53-44.42L-312.10-56.71L-336.42-56.71L-336.42 129.22L-301.64 129.22L-301.64 77.96C-295.63 82.67-288.30 85.55-280.72 85.55C-253.79 85.55-235.74 63.84-235.74 31.16L-235.74-4.93C-235.74-37.62-253.52-59.59-280.72-59.59ZM-272.09 31.16C-272.09 44.75-277.06 51.55-285.95 51.55C-296.15 51.55-301.64 44.75-301.64 31.16L-301.64-4.93C-301.64-18.53-296.15-25.59-285.95-25.59C-277.06-25.59-272.09-18.53-272.09-4.93Z"/><path fill="#289976" opacity="1" d="M-151.54-59.85C-167.23-59.85-179.26-53.57-186.58-41.80L-189.20-56.45L-212.73-56.45L-212.73 82.15L-177.17 82.15L-177.17-4.93C-177.17-19.58-168.01-26.37-153.11-26.37C-146.57-26.37-141.34-25.07-136.37-22.71L-136.37-56.71C-140.03-58.80-145.26-59.85-151.54-59.85Z"/><path fill="#289976" opacity="1" d="M-58.18 37.95C-60.54 47.37-63.68 51.29-74.40 51.29C-83.81 51.29-88.78 45.01-88.78 30.63L-88.78 24.88L-23.93 24.88L-23.93-6.24C-23.93-39.97-42.76-59.85-74.66-59.85C-106.04-59.85-124.60-39.97-124.60-6.24L-124.60 30.63C-124.60 64.89-106.04 85.29-74.92 85.29C-44.06 85.29-24.97 67.77-22.10 37.95ZM-74.40-26.90C-64.46-26.90-59.23-20.88-59.23-6.76L-59.23 0.56L-88.78 0.56L-88.78-6.76C-88.78-20.88-83.81-26.90-74.40-26.90Z"/><path fill="#289976" opacity="1" d="M57.14-59.85C42.76-59.85 31.51-53.83 24.45-42.33L21.84-56.45L-1.70-56.45L-1.70 82.15L33.86 82.15L33.86-5.45C33.86-19.05 39.62-25.85 48.77-25.85C57.40-25.85 62.11-19.84 62.11-2.84L62.11 82.15L97.93 82.15L97.93-2.84C97.93-40.50 82.76-59.85 57.14-59.85Z"/><path fill="#289976" opacity="1" d="M185.53-107.44L185.53-52.26C179.52-56.97 172.20-59.85 164.61-59.85C137.68-59.85 119.64-38.14 119.64-5.45L119.64 30.63C119.64 63.32 137.42 85.29 164.61 85.29C175.86 85.29 187.36 78.23 194.43 70.12L195.99 82.41L220.31 82.41L220.31-107.44ZM185.53 30.63C185.53 44.23 180.04 51.29 169.84 51.29C160.95 51.29 155.98 44.23 155.98 30.63L155.98-5.45C155.98-19.05 160.95-25.85 169.84-25.85C180.04-25.85 185.53-19.05 185.53-5.45Z"/><path fill="#289976" opacity="1" d="M309.75 37.95C307.39 47.37 304.26 51.29 293.53 51.29C284.12 51.29 279.15 45.01 279.15 30.63L279.15 24.88L344.00 24.88L344.00-6.24C344.00-39.97 325.18-59.85 293.27-59.85C261.89-59.85 243.33-39.97 243.33-6.24L243.33 30.63C243.33 64.89 261.89 85.29 293.01 85.29C323.87 85.29 342.96 67.77 345.83 37.95ZM293.53-26.90C303.47-26.90 308.70-20.88 308.70-6.76L308.70 0.56L279.15 0.56L279.15-6.76C279.15-20.88 284.12-26.90 293.53-26.90Z"/><path fill="#289976" opacity="1" d="M468.22-15.39L432.39-15.39L432.39-52.52L399.44-52.52L399.44-15.39L363.62-15.39L363.62 17.30L399.44 17.30L399.44 54.43L432.39 54.43L432.39 17.30L468.22 17.30Z"/></g></svg>