<?xml version="1.0" encoding="UTF-8" standalone="no" ?>
<!DOCTYPE svg PUBLIC "-//W3C//DTD SVG 1.1//EN" "http://www.w3.org/Graphics/SVG/1.1/DTD/svg11.dtd">
<svg xmlns="http://www.w3.org/2000/svg" xmlns:xlink="http://www.w3.org/1999/xlink" version="1.1" width="500" height="500" viewBox="0 0 500 500" xml:space="preserve">
<desc>Created with Fabric.js 3.6.3</desc>
<defs>
</defs>
<g transform="matrix(3.4829374656833507 0 0 0.6705325153955847 252.57474215605328 325.45808134872823)"  >
<path style="stroke: none; stroke-width: 1; stroke-dasharray: none; stroke-linecap: butt; stroke-dashoffset: 0; stroke-linejoin: miter; stroke-miterlimit: 4; fill: rgb(40,153,118); fill-rule: nonzero; opacity: 1;"  transform=" translate(-49.95, -50)" d="M 91.7 49 H 8.3 c -0.6 0 -1 0.4 -1 1 s 0.4 1 1 1 h 83.3 c 0.6 0 1 -0.4 1 -1 S 92.2 49 91.7 49 z" stroke-linecap="round" />
</g>
<g transform="matrix(0.5 0 0 0.5 253.73050616810912 291.5308617814242)" style=""  ><path fill="#289976" opacity="1" d="M-184.58 30.53L-176.22 30.53L-193.72-37.51L-202.37-37.51L-219.87 30.53L-211.51 30.53L-207.91 15.76L-188.18 15.76ZM-206.16 8.37L-200.62-14.66C-199.55-19.04-198.58-24.77-198.19-27.40L-197.90-27.40C-197.51-24.77-196.54-19.04-195.47-14.66L-189.93 8.37Z"/><path fill="#289976" opacity="1" d="M-141.52-37.51L-158.73-37.51L-158.73 30.53L-150.76 30.53L-150.76 5.75L-141.52 5.75C-128.60 5.75-121.31-1.93-121.31-16.02C-121.31-29.73-128.60-37.51-141.52-37.51ZM-141.52-1.83L-150.76-1.83L-150.76-29.92L-141.52-29.92C-133.36-29.92-129.37-25.26-129.37-16.02C-129.37-6.30-133.36-1.83-141.52-1.83Z"/><path fill="#289976" opacity="1" d="M-73.39 30.53L-64.35 30.53L-80.09 4.10C-71.54 1.67-66.58-5.72-66.58-16.90C-66.58-29.92-73.68-37.51-86.51-37.51L-103.13-37.51L-103.13 30.53L-95.16 30.53L-95.16 4.87L-88.26 4.87ZM-95.16-30.02L-86.51-30.02C-78.73-30.02-74.65-25.45-74.65-16.61C-74.65-7.57-78.73-2.61-86.61-2.61L-95.16-2.61Z"/><path fill="#289976" opacity="1" d="M-37.62 23.05L-37.62-0.38L-14.77-0.38L-14.77-7.67L-37.62-7.67L-37.62-30.12L-13.02-30.12L-13.02-37.51L-45.59-37.51L-45.59 30.53L-11.96 30.53L-11.96 23.05Z"/><path fill="#289976" opacity="1" d="M39.56-37.51L39.56-6.01C39.56-0.08 40.14 9.44 40.63 15.37L40.34 15.47C38.78 11.48 35.77 4.29 33.53-0.38L16.52-37.51L8.46-37.51L8.46 30.53L16.43 30.53L16.43-1.54C16.43-7.37 16.04-16.41 15.65-22.44L15.94-22.54C17.40-18.65 20.51-10.87 22.65-6.01L39.37 30.53L47.43 30.53L47.43-37.51Z"/><path fill="#289976" opacity="1" d="M71.25 30.53L87.48 30.53C100.31 30.53 107.99 22.95 107.99 9.93L107.99-16.90C107.99-29.92 100.41-37.51 87.38-37.51L71.25-37.51ZM79.22 22.95L79.22-29.92L87.48-29.92C95.55-29.92 100.02-25.45 100.02-16.70L100.02 9.64C100.02 18.48 95.45 22.95 87.48 22.95Z"/><path fill="#289976" opacity="1" d="M137.83 23.05L137.83-0.38L160.67-0.38L160.67-7.67L137.83-7.67L137.83-30.12L162.42-30.12L162.42-37.51L129.86-37.51L129.86 30.53L163.49 30.53L163.49 23.05Z"/><path fill="#289976" opacity="1" d="M216.37-3.10L202.37-3.10L202.37-17.48L195.18-17.48L195.18-3.10L181.18-3.10L181.18 4.00L195.18 4.00L195.18 18.38L202.37 18.38L202.37 4.00L216.37 4.00Z"/></g><g transform="matrix(0.5 0 0 0.5 253.7305061681091 337.0532260926531)" style=""  ><path fill="#289976" opacity="1" d="M-272.44-10.11L-283.44-10.11L-283.44-6.57L-279.86-6.57L-279.86 8.23L-276.03 8.23L-276.03-6.57L-272.44-6.57Z"/><path fill="#289976" opacity="1" d="M-254.42 8.54C-250.75 8.54-248.57 6.21-248.57 2.34L-248.57-10.11L-252.45-10.11L-252.45 2.34C-252.45 4.01-253.11 4.93-254.42 4.93C-255.73 4.93-256.38 4.01-256.38 2.34L-256.38-10.11L-260.26-10.11L-260.26 2.34C-260.26 6.21-258.08 8.54-254.42 8.54Z"/><path fill="#289976" opacity="1" d=""/><path fill="#289976" opacity="1" d="M-214.88 8.60C-211.24 8.60-209.12 6.40-209.12 3.38C-209.12-2.46-216.40-2.64-216.40-5.52C-216.40-6.36-215.82-6.89-214.85-6.89C-213.78-6.89-213.23-6.28-213.23-5.08L-209.40-5.08C-209.40-8.46-211.45-10.48-214.83-10.48C-218.21-10.48-220.17-8.43-220.17-5.63C-220.17-0.05-212.99 0.32-212.99 3.36C-212.99 4.27-213.60 4.98-214.83 4.98C-216.01 4.98-216.74 4.35-216.74 2.89L-220.56 2.89C-220.56 6.58-218.36 8.60-214.88 8.60Z"/><path fill="#289976" opacity="1" d="M-189.18 8.23L-185.33 8.23L-189.73-10.11L-193.71-10.11L-198.11 8.23L-194.26 8.23L-193.66 5.19L-189.78 5.19ZM-192.92 1.65L-192.50-0.44C-192.24-1.75-191.95-3.98-191.77-5.47L-191.67-5.47C-191.48-3.98-191.17-1.75-190.93-0.44L-190.51 1.65Z"/><path fill="#289976" opacity="1" d="M-169.42 4.69L-169.42-10.11L-173.14-10.11L-173.14 8.23L-163.97 8.23L-163.97 4.69Z"/><path fill="#289976" opacity="1" d="M-151.71-10.11L-151.71 8.23L-147.99 8.23L-147.99-10.11Z"/><path fill="#289976" opacity="1" d="M-134.26 8.23L-129.18 8.23C-125.51 8.23-123.36 5.92-123.36 2.02L-123.36-4.03C-123.36-7.86-125.54-10.11-129.23-10.11L-134.26-10.11ZM-130.54 4.69L-130.54-6.57L-129.18-6.57C-127.84-6.57-127.14-5.71-127.14-4.03L-127.14 2.02C-127.14 3.78-127.84 4.69-129.18 4.69Z"/><path fill="#289976" opacity="1" d="M-103.11 8.23L-99.26 8.23L-103.66-10.11L-107.64-10.11L-112.04 8.23L-108.19 8.23L-107.59 5.19L-103.71 5.19ZM-106.86 1.65L-106.44-0.44C-106.18-1.75-105.89-3.98-105.70-5.47L-105.60-5.47C-105.42-3.98-105.10-1.75-104.87-0.44L-104.45 1.65Z"/><path fill="#289976" opacity="1" d=""/><path fill="#289976" opacity="1" d="M-63.97 8.23L-60.12 8.23L-64.52-10.11L-68.50-10.11L-72.90 8.23L-69.05 8.23L-68.45 5.19L-64.57 5.19ZM-67.71 1.65L-67.29-0.44C-67.03-1.75-66.74-3.98-66.56-5.47L-66.46-5.47C-66.27-3.98-65.96-1.75-65.72-0.44L-65.30 1.65Z"/><path fill="#289976" opacity="1" d="M-44.21 4.69L-44.21-10.11L-47.93-10.11L-47.93 8.23L-38.76 8.23L-38.76 4.69Z"/><path fill="#289976" opacity="1" d=""/><path fill="#289976" opacity="1" d="M1.24-10.11L-1.64-3.17C-2.00-2.25-2.63-0.65-2.84 0.03L-2.95 0.03C-3.16-0.65-3.79-2.25-4.15-3.17L-7.03-10.11L-10.78-10.11L-10.78 8.23L-7.17 8.23L-7.17 3.72C-7.24 1.50-7.35-0.73-7.43-2.96L-7.30-3.01L-5.65 1.81L-4.73 4.30L-1.06 4.30L-0.14 1.81L1.51-3.01L1.64-2.96C1.53-0.73 1.45 1.50 1.35 3.72L1.35 8.23L4.99 8.23L4.99-10.11Z"/><path fill="#289976" opacity="1" d="M24.25 8.54C27.92 8.54 30.09 6.21 30.09 2.34L30.09-10.11L26.21-10.11L26.21 2.34C26.21 4.01 25.56 4.93 24.25 4.93C22.94 4.93 22.28 4.01 22.28 2.34L22.28-10.11L18.41-10.11L18.41 2.34C18.41 6.21 20.58 8.54 24.25 8.54Z"/><path fill="#289976" opacity="1" d="M51.52-10.11L51.52-5.87C51.52-4.16 51.73-1.02 52.05 1.29L51.97 1.37C51.52 0.21 51.10-0.99 50.66-2.14L47.17-10.11L43.51-10.11L43.51 8.23L47.17 8.23L47.17 4.51C47.17 2.47 46.99-0.97 46.70-3.27L46.78-3.35L48.43 1.13L51.52 8.23L55.19 8.23L55.19-10.11Z"/><path fill="#289976" opacity="1" d="M68.92 8.23L74.00 8.23C77.67 8.23 79.82 5.92 79.82 2.02L79.82-4.03C79.82-7.86 77.64-10.11 73.95-10.11L68.92-10.11ZM72.64 4.69L72.64-6.57L74.00-6.57C75.34-6.57 76.05-5.71 76.05-4.03L76.05 2.02C76.05 3.78 75.34 4.69 74.00 4.69Z"/><path fill="#289976" opacity="1" d="M98.45 8.54C102.17 8.54 104.39 6.21 104.39 2.28L104.39-4.16C104.39-8.09 102.17-10.42 98.45-10.42C94.73-10.42 92.50-8.09 92.50-4.16L92.50 2.28C92.50 6.21 94.73 8.54 98.45 8.54ZM98.45 4.93C97.06 4.93 96.35 4.01 96.35 2.28L96.35-4.16C96.35-5.89 97.06-6.81 98.45-6.81C99.84-6.81 100.54-5.89 100.54-4.16L100.54 2.28C100.54 4.01 99.84 4.93 98.45 4.93Z"/><path fill="#289976" opacity="1" d=""/><path fill="#289976" opacity="1" d="M137.04 4.69L137.04-10.11L133.32-10.11L133.32 8.23L142.49 8.23L142.49 4.69Z"/><path fill="#289976" opacity="1" d="M162.14 8.23L165.99 8.23L161.59-10.11L157.61-10.11L153.20 8.23L157.06 8.23L157.66 5.19L161.54 5.19ZM158.39 1.65L158.81-0.44C159.07-1.75 159.36-3.98 159.54-5.47L159.65-5.47C159.83-3.98 160.15-1.75 160.38-0.44L160.80 1.65Z"/><path fill="#289976" opacity="1" d="M187.19-1.15C188.16-2.04 188.73-3.51 188.73-4.90C188.73-8.01 186.71-10.11 183.88-10.11L178.17-10.11L178.17 8.23L183.96 8.23C187.11 8.23 189.36 6.03 189.36 2.75C189.36 1.10 188.55-0.36 187.19-1.15ZM183.23-6.60C184.43-6.60 184.96-5.97 184.96-4.74C184.96-3.45 184.41-2.77 183.36-2.77L181.89-2.77L181.89-6.60ZM183.31 4.72L181.89 4.72L181.89 0.71L183.39 0.71C184.78 0.71 185.54 1.39 185.54 2.73C185.54 4.04 184.78 4.72 183.31 4.72Z"/><path fill="#289976" opacity="1" d="M207.67 8.54C211.39 8.54 213.62 6.21 213.62 2.28L213.62-4.16C213.62-8.09 211.39-10.42 207.67-10.42C203.95-10.42 201.73-8.09 201.73-4.16L201.73 2.28C201.73 6.21 203.95 8.54 207.67 8.54ZM207.67 4.93C206.29 4.93 205.58 4.01 205.58 2.28L205.58-4.16C205.58-5.89 206.29-6.81 207.67-6.81C209.06-6.81 209.77-5.89 209.77-4.16L209.77 2.28C209.77 4.01 209.06 4.93 207.67 4.93Z"/><path fill="#289976" opacity="1" d="M234.79 8.23L238.85 8.23L235.39 1.29C237.02 0.32 237.94-1.52 237.94-4.00C237.94-7.86 235.79-10.11 232.15-10.11L226.83-10.11L226.83 8.23L230.55 8.23L230.55 2.07L231.86 2.07ZM230.55-6.57L232.09-6.57C233.40-6.57 234.11-5.68 234.11-4.00C234.11-2.35 233.40-1.46 232.09-1.46L230.55-1.46Z"/><path fill="#289976" opacity="1" d="M258.48 8.23L262.33 8.23L257.93-10.11L253.94-10.11L249.54 8.23L253.39 8.23L254.00 5.19L257.87 5.19ZM254.73 1.65L255.15-0.44C255.41-1.75 255.70-3.98 255.88-5.47L255.99-5.47C256.17-3.98 256.48-1.75 256.72-0.44L257.14 1.65Z"/><path fill="#289976" opacity="1" d="M278.23 4.69L278.23-10.11L274.51-10.11L274.51 8.23L283.68 8.23L283.68 4.69Z"/></g><g transform="matrix(1.8886539578206416 0 0 1.8886539578206416 248.04632947767163 183.58827474026418)"  >
<g style=""   >
		<g transform="matrix(1 0 0 1 0.7565000000000026 -7)"  >
<path style="stroke: none; stroke-width: 1; stroke-dasharray: none; stroke-linecap: butt; stroke-dashoffset: 0; stroke-linejoin: miter; stroke-miterlimit: 4; fill: rgb(40,153,118); fill-rule: nonzero; opacity: 1;"  transform=" translate(-50.2565, -42.5)" d="M 62.444 70.625 c 0 -6.323 2.677 -11.23 5.51 -16.426 c 2.823 -5.173 5.74 -10.521 5.74 -17.324 c 0 -12.924 -10.514 -23.438 -23.438 -23.438 S 26.819 23.951 26.819 36.875 c 0 6.802 2.917 12.151 5.74 17.324 c 2.833 5.196 5.51 10.104 5.51 16.426 c 0 0.518 0.419 0.938 0.938 0.938 h 22.5 C 62.024 71.562 62.444 71.143 62.444 70.625 z M 34.204 53.301 c -2.833 -5.196 -5.51 -10.104 -5.51 -16.426 c 0 -11.889 9.673 -21.562 21.562 -21.562 s 21.562 9.673 21.562 21.562 c 0 6.323 -2.677 11.23 -5.51 16.426 c -2.14 3.922 -4.312 7.956 -5.25 12.636 H 39.453 C 38.516 61.257 36.344 57.224 34.204 53.301 z M 39.926 69.688 c -0.026 -0.641 -0.094 -1.26 -0.169 -1.875 h 20.999 c -0.075 0.615 -0.143 1.234 -0.169 1.875 H 39.926 z" stroke-linecap="round" />
</g>
		<g transform="matrix(1 0 0 1 0.7560000000000002 24.876000000000005)"  >
<path style="stroke: none; stroke-width: 1; stroke-dasharray: none; stroke-linecap: butt; stroke-dashoffset: 0; stroke-linejoin: miter; stroke-miterlimit: 4; fill: rgb(40,153,118); fill-rule: nonzero; opacity: 1;"  transform=" translate(-50.256, -74.376)" d="M 59.631 73.438 h -18.75 c -0.518 0 -0.938 0.419 -0.938 0.938 s 0.419 0.938 0.938 0.938 h 18.75 c 0.518 0 0.938 -0.419 0.938 -0.938 S 60.149 73.438 59.631 73.438 z" stroke-linecap="round" />
</g>
		<g transform="matrix(1 0 0 1 0.7560000000000002 28.625)"  >
<path style="stroke: none; stroke-width: 1; stroke-dasharray: none; stroke-linecap: butt; stroke-dashoffset: 0; stroke-linejoin: miter; stroke-miterlimit: 4; fill: rgb(40,153,118); fill-rule: nonzero; opacity: 1;"  transform=" translate(-50.256, -78.125)" d="M 60.569 78.125 c 0 -0.518 -0.419 -0.938 -0.938 -0.938 h -18.75 c -0.518 0 -0.938 0.419 -0.938 0.938 s 0.419 0.938 0.938 0.938 h 18.75 C 60.149 79.062 60.569 78.643 60.569 78.125 z" stroke-linecap="round" />
</g>
		<g transform="matrix(1 0 0 1 0.8140000000000001 34.221000000000004)"  >
<path style="stroke: none; stroke-width: 1; stroke-dasharray: none; stroke-linecap: butt; stroke-dashoffset: 0; stroke-linejoin: miter; stroke-miterlimit: 4; fill: rgb(40,153,118); fill-rule: nonzero; opacity: 1;"  transform=" translate(-50.314, -83.721)" d="M 42.756 80.879 c -0.518 0 -0.938 0.419 -0.938 0.938 c 0 4.746 6.172 4.746 8.496 4.746 s 8.496 0 8.496 -4.746 c 0 -0.518 -0.419 -0.938 -0.938 -0.938 H 42.756 z M 50.315 84.688 c -4.534 0 -6.021 -0.877 -6.457 -1.934 h 12.913 C 56.335 83.811 54.849 84.688 50.315 84.688 z" stroke-linecap="round" />
</g>
		<g transform="matrix(1 0 0 1 -8.619 -13.561999999999996)"  >
<ellipse style="stroke: none; stroke-width: 1; stroke-dasharray: none; stroke-linecap: butt; stroke-dashoffset: 0; stroke-linejoin: miter; stroke-miterlimit: 4; fill: rgb(40,153,118); fill-rule: nonzero; opacity: 1;"  cx="0" cy="0" rx="1.875" ry="2.812" />
</g>
		<g transform="matrix(1 0 0 1 10.131 -13.561999999999996)"  >
<ellipse style="stroke: none; stroke-width: 1; stroke-dasharray: none; stroke-linecap: butt; stroke-dashoffset: 0; stroke-linejoin: miter; stroke-miterlimit: 4; fill: rgb(40,153,118); fill-rule: nonzero; opacity: 1;"  cx="0" cy="0" rx="1.875" ry="2.812" />
</g>
		<g transform="matrix(1 0 0 1 0.7539999999999907 -4.188000000000002)"  >
<path style="stroke: none; stroke-width: 1; stroke-dasharray: none; stroke-linecap: butt; stroke-dashoffset: 0; stroke-linejoin: miter; stroke-miterlimit: 4; fill: rgb(40,153,118); fill-rule: nonzero; opacity: 1;"  transform=" translate(-50.25399999999999, -45.312)" d="M 50.256 49.062 c 3.618 0 6.562 -2.944 6.562 -6.562 c 0 -0.518 -0.419 -0.938 -0.938 -0.938 s -0.938 0.419 -0.938 0.938 c 0 2.585 -2.102 4.688 -4.688 4.688 s -4.688 -2.102 -4.688 -4.688 c 0 -0.518 -0.419 -0.938 -0.938 -0.938 s -0.938 0.419 -0.938 0.938 C 43.694 46.118 46.638 49.062 50.256 49.062 z" stroke-linecap="round" />
</g>
</g>
</g>
</svg>